<?xml version="1.0" standalone="no"?><!DOCTYPE svg PUBLIC "-//W3C//DTD SVG 1.1//EN" "http://www.w3.org/Graphics/SVG/1.1/DTD/svg11.dtd"><svg class="icon" width="48px" height="48.00px" viewBox="0 0 1024 1024" version="1.1" xmlns="http://www.w3.org/2000/svg"><path fill="orange" d="M501.48 493.55m-233.03 0a233.03 233.03 0 1 0 466.06 0 233.03 233.03 0 1 0-466.06 0Z"  /><path fill="orange" d="M501.52 185.35H478.9c-8.28 0-15-6.72-15-15V87.59c0-8.28 6.72-15 15-15h22.62c8.28 0 15 6.72 15 15v82.76c0 8.28-6.72 15-15 15zM281.37 262.76l-16 16c-5.86 5.86-15.36 5.86-21.21 0l-58.52-58.52c-5.86-5.86-5.86-15.36 0-21.21l16-16c5.86-5.86 15.36-5.86 21.21 0l58.52 58.52c5.86 5.86 5.86 15.35 0 21.21zM185.76 478.48v22.62c0 8.28-6.72 15-15 15H88c-8.28 0-15-6.72-15-15v-22.62c0-8.28 6.72-15 15-15h82.76c8.28 0 15 6.72 15 15zM270.69 698.63l16 16c5.86 5.86 5.86 15.36 0 21.21l-58.52 58.52c-5.86 5.86-15.36 5.86-21.21 0l-16-16c-5.86-5.86-5.86-15.36 0-21.21l58.52-58.52c5.85-5.86 15.35-5.86 21.21 0zM486.41 794.24h22.62c8.28 0 15 6.72 15 15V892c0 8.28-6.72 15-15 15h-22.62c-8.28 0-15-6.72-15-15v-82.76c0-8.28 6.72-15 15-15zM706.56 709.31l16-16c5.86-5.86 15.36-5.86 21.21 0l58.52 58.52c5.86 5.86 5.86 15.36 0 21.21l-16 16c-5.86 5.86-15.36 5.86-21.21 0l-58.52-58.52c-5.86-5.85-5.86-15.35 0-21.21zM802.17 493.59v-22.62c0-8.28 6.72-15 15-15h82.76c8.28 0 15 6.72 15 15v22.62c0 8.28-6.72 15-15 15h-82.76c-8.28 0-15-6.72-15-15zM717.24 273.44l-16-16c-5.86-5.86-5.86-15.36 0-21.21l58.52-58.52c5.86-5.86 15.36-5.86 21.21 0l16 16c5.86 5.86 5.86 15.36 0 21.21l-58.52 58.52c-5.86 5.86-15.35 5.86-21.21 0z"  /></svg>